<?xml version="1.0" standalone="no"?>
<!DOCTYPE svg PUBLIC "-//W3C//DTD SVG 20010904//EN"
 "http://www.w3.org/TR/2001/REC-SVG-20010904/DTD/svg10.dtd">
<svg version="1.0" xmlns="http://www.w3.org/2000/svg"
 width="1100.000000pt" height="998.000000pt" viewBox="0 0 1100.000000 998.000000"
 preserveAspectRatio="xMidYMid meet">

<g transform="translate(0.000000,998.000000) scale(0.100000,-0.100000)"
fill="#000000" stroke="none">
<path d="M5390 6794 c-8 -2 -50 -6 -92 -9 -70 -6 -78 -9 -78 -27 0 -19 5 -20
60 -16 71 5 64 20 80 -167 13 -152 15 -157 48 -137 10 7 10 37 -2 157 -8 82
-13 151 -11 154 3 2 30 6 60 9 46 4 55 8 55 24 0 17 -6 19 -52 17 -29 -2 -60
-4 -68 -5z"/>
<path d="M5916 6744 c-3 -9 -6 -17 -6 -19 0 -2 25 -11 55 -20 30 -8 55 -19 55
-24 0 -5 -18 -67 -40 -139 -46 -148 -47 -158 -21 -165 16 -4 24 14 61 137 23
77 46 145 51 150 4 5 28 1 55 -8 60 -20 64 -20 64 3 0 16 -17 25 -87 46 -49
14 -108 33 -132 41 -54 17 -48 17 -55 -2z"/>
<path d="M4650 6579 c-122 -49 -134 -210 -22 -311 70 -64 158 -61 227 7 77 78
51 222 -54 292 -37 25 -105 30 -151 12z m145 -69 c32 -31 62 -97 59 -130 -1
-8 -2 -23 -3 -33 0 -10 -14 -32 -30 -48 -24 -24 -38 -29 -76 -29 -26 0 -57 7
-71 16 -57 38 -94 149 -66 201 39 72 126 82 187 23z"/>
<path d="M6487 6319 c-60 -72 -107 -135 -105 -141 2 -5 44 -43 93 -83 78 -65
92 -72 102 -58 10 13 1 25 -62 76 -41 33 -75 64 -75 67 0 4 17 27 39 51 l38
44 69 -57 c60 -49 71 -55 83 -43 8 8 13 16 10 18 -51 41 -130 108 -132 111 -3
6 57 85 65 86 3 0 39 -27 78 -60 59 -49 75 -58 87 -49 11 10 12 15 1 25 -28
27 -173 144 -178 144 -3 0 -54 -59 -113 -131z"/>
<path d="M4127 6147 c-16 -25 -16 -32 2 -144 11 -65 18 -119 16 -121 -1 -2
-33 18 -70 44 -62 43 -68 45 -83 30 -15 -15 -15 -17 3 -30 11 -8 76 -55 145
-104 91 -65 128 -87 138 -80 21 18 13 32 -38 67 -46 30 -50 37 -50 72 l0 39
109 0 c105 0 109 1 125 25 l16 25 -133 0 -134 0 -7 68 c-4 37 -10 82 -14 101
l-7 34 -18 -26z"/>
<path d="M7030 5916 c0 -16 12 -20 74 -31 l39 -7 -15 24 c-18 27 -98 39 -98
14z"/>
<path d="M5057 5634 c-4 -4 -7 -20 -7 -36 l0 -28 -227 2 c-151 1 -237 -2 -255
-10 -45 -18 -68 -49 -68 -87 0 -31 -3 -35 -25 -35 -29 0 -48 -29 -43 -68 2
-20 12 -31 37 -42 l33 -15 -6 -355 c-7 -349 3 -579 24 -605 7 -8 144 -14 482
-20 487 -9 1490 -9 1520 1 9 2 20 12 24 22 6 14 11 293 14 880 0 70 3 92 13
92 26 0 49 37 45 72 -2 27 -8 35 -34 42 -29 9 -33 14 -38 58 -8 57 -24 67
-123 75 -57 5 -63 8 -63 28 0 21 -6 24 -53 27 -29 1 -92 2 -141 0 -74 -3 -89
-6 -93 -21 -4 -15 -17 -17 -121 -13 -85 3 -119 8 -125 18 -5 8 -25 14 -48 14
-33 0 -42 -4 -46 -21 -5 -19 -12 -20 -107 -18 -55 1 -113 -1 -127 -5 -18 -5
-29 -3 -38 8 -18 22 -68 20 -82 -2 -10 -17 -23 -18 -108 -16 l-96 4 -5 27 c-5
26 -9 28 -55 31 -28 2 -54 0 -58 -4z m88 -39 c0 -16 -7 -20 -35 -20 -29 0 -36
4 -38 23 -3 21 0 23 35 20 30 -2 38 -7 38 -23z m658 8 c-7 -2 -21 -2 -30 0
-10 3 -4 5 12 5 17 0 24 -2 18 -5z m537 -5 c0 -10 -30 -12 -125 -10 -161 4
-156 22 6 22 88 0 119 -3 119 -12z m-895 -18 c4 -6 -7 -10 -25 -10 -18 0 -29
4 -25 10 3 6 15 10 25 10 10 0 22 -4 25 -10z m102 -52 c-2 -13 -4 -5 -4 17 -1
22 1 32 4 23 2 -10 2 -28 0 -40z m783 36 c58 -2 124 -10 147 -16 49 -12 49
-10 59 -215 l6 -133 -234 0 c-328 0 -432 13 -158 20 l205 5 -1 149 c0 135 -2
150 -20 163 -29 22 -541 8 -568 -16 -17 -14 -18 -26 -12 -119 l6 -102 -32 16
c-73 38 -368 7 -440 -46 -26 -19 -47 -21 -398 -25 l-370 -5 0 118 0 119 227 6
c124 4 375 7 557 7 182 0 349 5 370 10 24 5 53 23 75 45 l36 37 220 -6 c121
-4 267 -9 325 -12z m-800 -24 c0 -16 -4 -30 -10 -30 -5 0 -10 14 -10 30 0 17
5 30 10 30 6 0 10 -13 10 -30z m49 3 c1 20 6 27 21 27 16 0 20 -6 19 -32 -1
-31 -1 -32 -9 -8 -8 24 -8 24 -9 3 -1 -16 -7 -23 -21 -23 -16 0 -20 6 -19 33
l1 32 8 -30 8 -30 1 28z m58 -20 c-3 -10 -5 -2 -5 17 0 19 2 27 5 18 2 -10 2
-26 0 -35z m53 22 c0 -18 -5 -25 -20 -25 -15 0 -20 7 -20 25 0 18 5 25 20 25
15 0 20 -7 20 -25z m50 22 c0 -2 -9 -12 -20 -22 -19 -18 -20 -17 -20 3 0 15 6
22 20 22 11 0 20 -2 20 -3z m-1010 -37 l0 -29 -62 1 c-35 1 -66 6 -70 12 -5 8
-8 7 -8 -1 0 -7 -4 -13 -10 -13 -20 0 -10 38 13 44 37 10 77 7 77 -6 0 -9 3
-10 8 -2 7 10 28 21 45 23 4 1 7 -12 7 -29z m30 -6 c0 -13 -4 -24 -10 -24 -5
0 -10 14 -10 31 0 17 4 28 10 24 6 -3 10 -17 10 -31z m460 5 c0 -10 -7 -19
-15 -19 -15 0 -21 31 -9 43 11 10 24 -3 24 -24z m60 5 c0 -27 -19 -33 -21 -6
-1 16 -2 16 -6 0 -6 -26 -23 -22 -23 5 0 16 6 22 25 23 20 2 25 -3 25 -22z
m70 -5 c0 -14 -7 -19 -30 -19 -25 0 -30 4 -30 23 0 20 4 23 30 19 21 -3 30
-10 30 -23z m150 6 c0 -28 -19 -35 -21 -7 -1 16 -2 16 -6 0 -6 -24 -23 -23
-23 1 0 17 12 25 43 30 4 0 7 -10 7 -24z m-723 -22 c-3 -10 -5 -4 -5 12 0 17
2 24 5 18 2 -7 2 -21 0 -30z m33 12 c0 -14 -4 -25 -10 -25 -5 0 -10 11 -10 25
0 14 5 25 10 25 6 0 10 -11 10 -25z m60 5 c0 -21 -19 -28 -21 -7 0 10 -2 10
-6 0 -8 -20 -23 -15 -23 7 0 15 7 20 25 20 18 0 25 -5 25 -20z m40 0 c0 -11
-7 -20 -15 -20 -8 0 -15 9 -15 20 0 11 7 20 15 20 8 0 15 -9 15 -20z m110 0
c0 -13 -8 -17 -32 -17 -18 1 -36 6 -40 12 -5 6 -8 6 -8 -2 0 -7 -4 -13 -10
-13 -5 0 -10 9 -10 19 0 17 7 20 50 19 41 0 50 -3 50 -18z m30 0 c0 -11 -4
-20 -10 -20 -5 0 -10 9 -10 20 0 11 5 20 10 20 6 0 10 -9 10 -20z m40 0 c0
-11 -7 -20 -15 -20 -8 0 -15 9 -15 20 0 11 7 20 15 20 8 0 15 -9 15 -20z m30
0 c0 -11 -4 -20 -10 -20 -5 0 -10 9 -10 20 0 11 5 20 10 20 6 0 10 -9 10 -20z
m60 2 c0 -12 -8 -18 -25 -20 -19 -1 -25 3 -25 18 0 15 7 20 25 20 17 0 25 -5
25 -18z m260 -2 c0 -17 -7 -20 -40 -20 -33 0 -40 3 -40 20 0 17 7 20 40 20 33
0 40 -3 40 -20z m-880 -16 c0 -8 -5 -12 -10 -9 -6 4 -8 11 -5 16 9 14 15 11
15 -7z m1754 10 c10 -4 16 -18 16 -35 l0 -29 -127 0 c-149 0 -159 17 -13 23
l95 3 -98 2 c-69 1 -103 6 -113 16 -11 11 -11 16 -1 19 18 8 222 8 241 1z
m-398 -11 c-61 -2 -115 -8 -122 -14 -7 -6 -15 -38 -17 -72 l-3 -62 -2 66 c-1
40 3 70 10 77 8 8 48 11 128 10 l115 -2 -109 -3z m146 -68 c1 -30 2 -67 2 -82
1 -33 -24 -44 -25 -11 -1 15 -3 17 -6 7 -6 -24 -83 -25 -84 -1 -1 15 -2 15 -6
0 -7 -28 -53 -24 -54 5 -2 21 -2 21 -6 1 -4 -23 -42 -37 -64 -23 -8 5 -15 36
-17 78 l-4 71 61 -1 c59 -1 61 -2 62 -28 l2 -26 4 28 c3 19 10 27 24 27 14 0
19 -7 20 -27 l2 -28 4 28 c5 33 33 37 34 5 1 -22 2 -19 14 20 3 6 11 12 20 12
11 0 15 -13 17 -55z m276 -12 c-2 -9 -14 -20 -28 -24 l-25 -7 28 -1 c15 -1 27
-5 27 -11 0 -6 -39 -11 -92 -12 l-93 -2 93 -3 c50 -2 92 -8 92 -13 0 -6 -6
-10 -12 -10 -9 0 -8 -4 2 -10 13 -8 12 -10 -5 -11 l-20 -1 20 -7 c11 -3 -32
-8 -95 -12 l-115 -5 113 -2 c92 -2 112 -5 112 -17 0 -13 -35 -15 -267 -13
l-268 2 225 6 225 6 -240 2 c-145 2 -232 7 -220 12 11 5 76 9 145 10 69 1 134
5 145 10 11 5 16 9 10 10 -5 1 1 6 15 10 24 8 24 8 3 9 -16 1 -23 7 -23 21 0
16 7 20 38 22 l37 1 -36 4 c-26 3 -38 10 -42 23 -3 10 -2 21 1 24 3 3 61 6
129 6 112 0 124 -2 121 -17z m246 -9 c21 -8 20 -48 -1 -65 -15 -11 -16 -11 -5
1 19 21 14 46 -10 58 -24 11 -11 16 16 6z m-2084 -14 c0 -5 -10 -10 -21 -10
-18 0 -20 -5 -16 -26 3 -17 1 -22 -6 -15 -16 16 1 61 23 61 11 0 20 -4 20 -10z
m2070 -20 c0 -5 -4 -10 -10 -10 -5 0 -10 5 -10 10 0 6 5 10 10 10 6 0 10 -4
10 -10z m-778 -55 c3 -14 1 -25 -3 -25 -5 0 -9 11 -9 25 0 14 2 25 4 25 2 0 6
-11 8 -25z m-262 -33 c0 -5 -13 -9 -30 -10 -16 0 -30 4 -30 9 0 5 14 9 30 9
17 0 30 -4 30 -8z m30 -2 c0 -5 -4 -10 -10 -10 -5 0 -10 5 -10 10 0 6 5 10 10
10 6 0 10 -4 10 -10z m96 1 c-5 -8 -56 -3 -56 5 0 2 14 4 31 4 16 0 28 -4 25
-9z m69 -14 c7 -9 15 -14 18 -10 4 3 7 1 7 -6 0 -7 4 -10 9 -7 15 10 43 -5 37
-20 -3 -8 0 -11 9 -8 8 3 26 -7 41 -23 32 -35 61 -87 44 -81 -6 2 -12 8 -12
13 -2 14 -69 73 -91 81 -11 3 -16 12 -13 20 3 8 2 12 -3 9 -12 -7 -81 25 -81
37 0 5 -4 6 -10 3 -5 -3 -10 -1 -10 4 0 16 41 7 55 -12z m-265 2 c0 -5 -8 -9
-17 -10 -20 -1 -34 -3 -75 -14 -19 -5 -28 -3 -28 5 0 7 7 10 15 6 8 -3 15 -1
15 4 0 9 26 15 68 17 12 0 22 -3 22 -8z m195 -18 c57 -11 179 -101 211 -157
41 -69 64 -157 64 -239 0 -41 -4 -84 -9 -97 -5 -13 -12 -35 -15 -50 -3 -14
-25 -49 -48 -78 -83 -100 -266 -153 -418 -121 -72 15 -159 74 -183 124 -29 58
-49 198 -45 306 4 94 5 97 52 174 27 43 58 84 70 92 11 7 55 20 96 29 65 14
92 17 170 24 8 1 33 -2 55 -7z m-359 -51 c-20 -22 -36 -45 -36 -50 0 -6 -7
-10 -15 -10 -8 0 -15 5 -15 10 0 6 7 10 16 10 8 0 12 5 9 11 -8 13 23 49 42
49 8 0 11 5 8 10 -3 6 1 10 11 10 12 0 7 -10 -20 -40z m1044 30 c0 -6 -79 -11
-212 -12 -243 -2 -279 0 -292 13 -6 5 88 9 247 9 165 0 257 -4 257 -10z
m-1660 -45 c0 -14 -4 -25 -10 -25 -5 0 -10 11 -10 25 0 14 5 25 10 25 6 0 10
-11 10 -25z m17 -12 c-3 -10 -5 -4 -5 12 0 17 2 24 5 18 2 -7 2 -21 0 -30z
m333 6 c0 -10 -4 -19 -10 -19 -5 0 -10 12 -10 26 0 14 4 23 10 19 6 -3 10 -15
10 -26z m92 19 c6 -10 8 -10 8 0 0 6 5 12 10 12 6 0 10 -11 10 -25 0 -24 -3
-26 -45 -24 -33 2 -45 7 -46 18 0 12 -3 10 -9 -4 -8 -20 -9 -20 -9 1 -1 11 1
23 4 25 10 11 69 8 77 -3z m58 -13 c0 -14 -4 -25 -10 -25 -5 0 -10 11 -10 25
0 14 5 25 10 25 6 0 10 -11 10 -25z m30 0 c0 -14 -4 -25 -10 -25 -5 0 -10 11
-10 25 0 14 5 25 10 25 6 0 10 -11 10 -25z m24 10 c-4 -8 -8 -15 -10 -15 -2 0
-4 7 -4 15 0 8 4 15 10 15 5 0 7 -7 4 -15z m-663 -7 c0 -10 2 -10 6 0 7 19 23
14 23 -7 0 -24 -40 -36 -41 -13 0 14 -2 13 -9 -3 -8 -18 -9 -18 -10 5 -1 23
-2 23 -10 5 -8 -19 -9 -19 -9 3 -1 17 5 22 24 22 14 0 25 -6 26 -12z m79 -10
c0 -19 -2 -20 -10 -8 -6 10 -10 11 -10 3 0 -7 -4 -13 -10 -13 -5 0 -10 9 -10
20 0 13 7 20 20 20 14 0 20 -7 20 -22z m131 10 c0 -10 2 -10 6 0 8 19 23 14
23 -8 0 -13 -7 -20 -20 -20 -11 0 -20 6 -20 13 0 8 -4 7 -10 -3 -9 -13 -11
-13 -20 0 -6 10 -10 11 -10 3 0 -7 -4 -13 -10 -13 -5 0 -10 9 -10 20 0 16 7
20 35 20 21 0 35 -5 36 -12z m78 -10 c0 -22 -1 -22 -9 -3 -7 17 -9 17 -9 3 -1
-25 -21 -23 -21 2 0 13 7 20 20 20 14 0 20 -6 19 -22z m31 2 c0 -11 -4 -20
-10 -20 -5 0 -10 9 -10 20 0 11 5 20 10 20 6 0 10 -9 10 -20z m70 0 c0 -16 -7
-20 -30 -20 -23 0 -30 4 -30 20 0 16 7 20 30 20 23 0 30 -4 30 -20z m40 0 c0
-11 -7 -20 -15 -20 -8 0 -15 9 -15 20 0 11 7 20 15 20 8 0 15 -9 15 -20z m927
-52 c-3 -7 -5 -2 -5 12 0 14 2 19 5 13 2 -7 2 -19 0 -25z m34 15 c1 -17 2 -17
6 0 6 23 23 22 23 -3 0 -15 -7 -20 -25 -20 -18 0 -25 5 -25 20 0 25 20 27 21
3z m59 -3 c0 -11 -4 -20 -10 -20 -5 0 -10 9 -10 20 0 11 5 20 10 20 6 0 10 -9
10 -20z m30 0 c0 -11 -4 -20 -10 -20 -5 0 -10 9 -10 20 0 11 5 20 10 20 6 0
10 -9 10 -20z m30 0 c0 -11 -4 -20 -10 -20 -5 0 -10 9 -10 20 0 11 5 20 10 20
6 0 10 -9 10 -20z m80 5 c0 -11 -7 -14 -25 -11 -14 3 -25 0 -25 -5 0 -5 -4 -9
-10 -9 -5 0 -10 9 -10 20 0 16 7 20 35 20 25 0 35 -4 35 -15z m30 0 c0 -8 -4
-15 -10 -15 -5 0 -10 7 -10 15 0 8 5 15 10 15 6 0 10 -7 10 -15z m30 0 c0 -8
-4 -15 -10 -15 -5 0 -10 7 -10 15 0 8 5 15 10 15 6 0 10 -7 10 -15z m30 0 c0
-8 -4 -15 -10 -15 -5 0 -10 7 -10 15 0 8 5 15 10 15 6 0 10 -7 10 -15z m30 0
c0 -8 -4 -15 -10 -15 -5 0 -10 7 -10 15 0 8 5 15 10 15 6 0 10 -7 10 -15z m60
-5 c0 -13 -6 -16 -25 -12 -14 2 -25 10 -25 17 0 7 11 13 25 13 17 0 25 -6 25
-18z m40 0 c0 -11 -7 -20 -15 -20 -8 0 -15 9 -15 20 0 11 7 20 15 20 8 0 15
-9 15 -20z m30 0 c0 -11 -4 -20 -10 -20 -5 0 -10 9 -10 20 0 11 5 20 10 20 6
0 10 -9 10 -20z m30 0 c0 -11 -4 -20 -10 -20 -5 0 -10 9 -10 20 0 11 5 20 10
20 6 0 10 -9 10 -20z m29 3 c1 24 21 22 21 -3 0 -13 -7 -20 -20 -20 -14 0 -20
6 -19 23 0 21 1 21 9 2 7 -17 9 -17 9 -2z m38 -15 c-3 -7 -5 -2 -5 12 0 14 2
19 5 13 2 -7 2 -19 0 -25z m33 18 c0 -8 -4 -18 -10 -21 -5 -3 -10 3 -10 14 0
12 5 21 10 21 6 0 10 -6 10 -14z m-1340 -16 c0 -3 -15 -28 -34 -54 -47 -66
-62 -142 -46 -237 20 -127 61 -233 114 -296 l25 -30 -367 -5 c-202 -4 -368 -5
-369 -4 -12 11 -14 136 -8 360 l7 265 37 4 c63 7 641 5 641 -3z m50 -3 c0 -10
-41 -49 -46 -44 -9 9 16 47 31 47 8 0 15 -2 15 -3z m1280 -34 c8 -8 13 -430 5
-519 l-7 -84 -222 0 c-123 0 -277 3 -343 6 l-120 7 41 41 c128 128 158 300 83
473 l-35 82 101 4 c119 4 490 -4 497 -10z m-1324 -39 c-3 -9 -6 -18 -6 -20 0
-2 -10 -4 -22 -4 -21 0 -21 0 -2 19 23 24 38 27 30 5z m728 -9 c3 -8 1 -15 -3
-15 -5 0 -11 7 -15 15 -3 8 -1 15 3 15 5 0 11 -7 15 -15z m-751 -32 c-7 -2
-19 -2 -25 0 -7 3 -2 5 12 5 14 0 19 -2 13 -5z m767 -8 c10 -12 10 -15 -4 -15
-9 0 -16 7 -16 15 0 8 2 15 4 15 2 0 9 -7 16 -15z m-760 -15 c0 -5 -12 -10
-26 -10 -14 0 -23 4 -19 10 3 6 15 10 26 10 10 0 19 -4 19 -10z m781 -38 c6
-17 5 -22 -7 -22 -8 0 -12 5 -9 10 3 6 0 10 -7 11 -10 0 -10 2 1 6 11 5 11 7
0 15 -12 8 -12 9 0 6 8 -2 18 -14 22 -26z m-788 11 c-7 -2 -21 -2 -30 0 -10 3
-4 5 12 5 17 0 24 -2 18 -5z m-3 -37 c-6 -17 -5 -26 3 -30 7 -2 -3 -5 -20 -5
-29 -1 -32 2 -29 22 3 12 5 25 5 30 1 4 12 7 26 7 22 0 24 -3 15 -24z m797
-12 c-3 -3 -12 -4 -19 -1 -8 3 -5 6 6 6 11 1 17 -2 13 -5z m6 -21 c-7 -2 -19
-2 -25 0 -7 3 -2 5 12 5 14 0 19 -2 13 -5z m-796 -33 c1 -15 -4 -20 -23 -20
-17 0 -24 5 -24 20 0 14 7 20 23 20 16 0 23 -6 24 -20z m796 13 c-7 -2 -19 -2
-25 0 -7 3 -2 5 12 5 14 0 19 -2 13 -5z m7 -28 c0 -9 -9 -15 -22 -14 -21 1
-21 2 -3 7 l20 5 -20 8 c-19 7 -19 8 3 8 13 1 22 -5 22 -14z m-800 -30 c0 -20
0 -20 10 -55 6 -21 5 -30 -3 -30 -7 0 -6 -4 3 -10 12 -8 12 -10 -5 -11 l-20 0
20 -9 c13 -6 15 -9 5 -9 -13 -1 -13 -2 0 -11 9 -6 10 -10 3 -10 -15 0 -35 35
-26 44 3 3 2 6 -4 6 -6 0 -13 11 -15 25 -3 14 -1 25 6 25 6 0 4 5 -4 10 -13 9
-13 11 0 20 10 6 11 10 3 10 -7 0 -13 5 -13 10 0 6 9 10 20 10 11 0 20 -7 20
-15z m800 -5 c0 -13 -11 -13 -30 0 -12 8 -11 10 8 10 12 0 22 -4 22 -10z m-10
-20 c8 -5 12 -12 9 -15 -8 -8 -39 5 -39 16 0 11 11 11 30 -1z m-14 -29 c-4 -5
-1 -11 5 -13 7 -2 3 -21 -12 -51 -23 -47 -33 -55 -44 -37 -3 6 -2 10 2 10 5 0
10 9 11 20 4 49 5 50 26 45 19 -5 19 -5 3 5 -17 11 -15 30 4 30 6 0 8 -4 5 -9z
m-749 -107 c-3 -3 -12 -4 -19 -1 -8 3 -5 6 6 6 11 1 17 -2 13 -5z m708 -14 c3
-5 2 -10 -4 -10 -5 0 -13 5 -16 10 -3 6 -2 10 4 10 5 0 13 -4 16 -10z m-695
-10 c0 -5 1 -13 2 -17 3 -11 47 -51 61 -56 13 -4 0 -27 -15 -27 -5 0 -8 7 -5
14 4 10 1 13 -7 10 -7 -3 -21 11 -31 31 -11 19 -23 35 -27 35 -5 0 -8 5 -8 10
0 6 7 10 15 10 8 0 15 -4 15 -10z m685 -9 c3 -5 -5 -17 -17 -25 -12 -9 -19
-16 -15 -16 4 0 -1 -9 -10 -20 -19 -21 -43 -27 -43 -10 0 6 7 13 15 16 8 4 12
10 9 15 -3 5 -1 9 4 9 5 0 12 9 15 20 5 21 31 27 42 11z m-121 -117 c-28 -17
-41 -20 -51 -12 -17 13 -17 32 0 21 21 -13 36 -12 30 4 -5 12 -7 12 -15 1 -8
-10 -9 -10 -5 2 3 10 14 14 31 12 21 -2 26 0 20 10 -6 9 -3 9 10 -1 16 -14 15
-16 -20 -37z m-451 12 c14 -13 28 -21 31 -18 3 3 6 -2 6 -12 0 -19 -27 -15
-67 12 -24 15 -28 24 -16 35 11 11 19 8 46 -17z m393 -43 c-4 -4 -11 -1 -16 7
-16 25 -11 35 7 17 9 -9 13 -20 9 -24z m-306 1 c0 -7 -9 -12 -20 -11 -12 1
-20 8 -20 18 0 12 6 16 20 12 11 -3 20 -11 20 -19z m278 0 c3 -18 2 -18 -14 1
-13 16 -15 16 -11 3 8 -22 -31 -36 -44 -17 -11 17 -12 32 -1 26 4 -3 16 -1 27
4 27 10 39 6 43 -17z m-948 1 c0 -6 -9 -11 -20 -12 -11 -1 -20 4 -20 10 0 7 9
13 20 13 11 0 20 -5 20 -11z m30 0 c0 -8 -4 -15 -10 -15 -5 0 -10 7 -10 15 0
8 5 15 10 15 6 0 10 -7 10 -15z m50 0 c0 -6 -9 -11 -20 -11 -11 0 -20 5 -20
11 0 6 9 11 20 11 11 0 20 -5 20 -11z m150 1 c0 -7 -25 -10 -70 -8 -91 5 -91
19 0 19 43 -1 70 -5 70 -11z m60 0 c0 -9 -10 -13 -25 -12 -32 1 -32 21 0 24
16 1 25 -3 25 -12z m50 1 c0 -7 -9 -13 -20 -14 -11 -1 -20 4 -20 13 0 8 9 14
20 14 11 0 20 -6 20 -13z m50 0 c0 -7 -9 -13 -20 -14 -11 -1 -20 4 -20 10 0 7
9 13 20 14 11 1 20 -4 20 -10z m17 -9 c-3 -8 -6 -5 -6 6 -1 11 2 17 5 13 3 -3
4 -12 1 -19z m53 8 c0 -9 -9 -14 -20 -13 -11 1 -20 7 -20 14 0 7 9 13 20 13
11 0 20 -6 20 -14z m83 -1 c18 -13 19 -15 4 -15 -9 0 -17 6 -17 13 0 8 -4 7
-10 -3 -9 -13 -10 -13 -10 0 0 9 -3 11 -8 5 -11 -15 -32 -17 -32 -2 0 18 48
20 73 2z m177 -11 c0 -7 -9 -12 -20 -11 -12 1 -20 8 -20 18 0 12 6 16 20 12
11 -3 20 -11 20 -19z m-920 4 c0 -4 -9 -8 -21 -8 -11 0 -18 4 -15 8 3 5 12 9
21 9 8 0 15 -4 15 -9z m50 4 c0 -4 -9 -8 -20 -9 -11 -1 -20 2 -20 8 0 5 9 9
20 9 11 0 20 -4 20 -8z m30 -2 c0 -5 -4 -10 -10 -10 -5 0 -10 5 -10 10 0 6 5
10 10 10 6 0 10 -4 10 -10z m30 0 c0 -5 -4 -10 -10 -10 -5 0 -10 5 -10 10 0 6
5 10 10 10 6 0 10 -4 10 -10z m827 -12 c-3 -8 -6 -5 -6 6 -1 11 2 17 5 13 3
-3 4 -12 1 -19z m20 0 c-3 -8 -6 -5 -6 6 -1 11 2 17 5 13 3 -3 4 -12 1 -19z
m20 0 c-3 -8 -6 -5 -6 6 -1 11 2 17 5 13 3 -3 4 -12 1 -19z m20 -10 c-3 -7 -5
-2 -5 12 0 14 2 19 5 13 2 -7 2 -19 0 -25z m33 22 c0 13 1 13 10 0 7 -11 10
-11 10 -2 0 7 5 10 10 7 20 -12 9 -25 -20 -25 -22 0 -30 5 -30 18 0 14 2 15
10 2 9 -13 10 -13 10 0z m207 -12 c-3 -8 -6 -5 -6 6 -1 11 2 17 5 13 3 -3 4
-12 1 -19z m20 0 c-3 -8 -6 -5 -6 6 -1 11 2 17 5 13 3 -3 4 -12 1 -19z m20 0
c-3 -8 -6 -5 -6 6 -1 11 2 17 5 13 3 -3 4 -12 1 -19z m33 7 c0 -8 -4 -15 -10
-15 -5 0 -10 7 -10 15 0 8 5 15 10 15 6 0 10 -7 10 -15z m30 0 c0 -8 -4 -15
-10 -15 -5 0 -10 7 -10 15 0 8 5 15 10 15 6 0 10 -7 10 -15z m60 0 c0 -7 -11
-12 -25 -12 -14 0 -25 5 -25 12 0 7 11 13 25 13 14 0 25 -6 25 -13z m17 -7
c-3 -8 -6 -5 -6 6 -1 11 2 17 5 13 3 -3 4 -12 1 -19z m53 2 c0 -5 -4 -10 -10
-10 -5 0 -10 5 -10 10 0 6 5 10 10 10 6 0 10 -4 10 -10z m50 0 c0 -5 -4 -10
-10 -10 -5 0 -10 5 -10 10 0 6 5 10 10 10 6 0 10 -4 10 -10z m110 0 c0 -5 -18
-9 -40 -8 -22 1 -40 5 -40 10 0 4 18 8 40 8 22 0 40 -4 40 -10z m70 0 c0 -5
-9 -10 -20 -10 -11 0 -20 5 -20 10 0 6 9 10 20 10 11 0 20 -4 20 -10z m110 3
c0 -5 -14 -9 -30 -10 -17 -1 -30 2 -30 7 0 6 14 10 30 10 17 0 30 -3 30 -7z
m60 -1 c0 -4 -11 -9 -25 -10 -14 -1 -25 3 -25 8 0 6 11 10 25 10 14 0 25 -4
25 -8z m40 0 c0 -5 -7 -9 -15 -9 -8 0 -15 4 -15 9 0 4 7 8 15 8 8 0 15 -4 15
-8z m70 -2 c0 -5 -9 -10 -20 -10 -11 0 -20 5 -20 10 0 6 9 10 20 10 11 0 20
-4 20 -10z m-1065 -30 c61 -6 133 -7 160 -3 28 5 240 7 473 5 l422 -3 0 -37
c0 -20 -4 -42 -8 -49 -16 -26 -1979 -15 -1987 11 -2 6 -6 28 -10 48 l-6 38
193 2 c304 5 643 -1 763 -12z"/>
<path d="M5832 5440 c0 -19 2 -27 5 -17 2 9 2 25 0 35 -3 9 -5 1 -5 -18z"/>
<path d="M5873 5435 c0 -22 2 -30 4 -17 2 12 2 30 0 40 -3 9 -5 -1 -4 -23z"/>
<path d="M5932 5400 c0 -14 2 -19 5 -12 2 6 2 18 0 25 -3 6 -5 1 -5 -13z"/>
<path d="M5982 5400 c0 -14 2 -19 5 -12 2 6 2 18 0 25 -3 6 -5 1 -5 -13z"/>
<path d="M6021 5404 c0 -11 3 -14 6 -6 3 7 2 16 -1 19 -3 4 -6 -2 -5 -13z"/>
<path d="M5841 5374 c0 -11 3 -14 6 -6 3 7 2 16 -1 19 -3 4 -6 -2 -5 -13z"/>
<path d="M6147 5423 c18 -2 50 -2 70 0 21 2 7 4 -32 4 -38 0 -55 -2 -38 -4z"/>
<path d="M5495 5136 c-62 -20 -97 -41 -140 -86 l-40 -41 3 -97 c3 -114 30
-184 90 -230 34 -26 41 -27 141 -27 93 1 113 4 163 27 64 30 79 52 97 140 21
100 -11 208 -82 276 -52 50 -146 65 -232 38z m149 -15 c120 -28 190 -227 125
-358 -22 -43 -30 -50 -84 -70 -88 -32 -208 -32 -255 1 -55 37 -86 106 -94 206
-6 92 2 117 54 158 79 61 167 83 254 63z"/>
<path d="M5445 5056 c-62 -41 -75 -68 -75 -154 1 -112 44 -179 134 -203 108
-29 246 40 261 131 11 62 -12 171 -43 203 -43 45 -74 57 -154 57 -67 0 -78 -3
-123 -34z m70 -16 c-6 -20 -7 -21 -22 -3 -8 10 -11 12 -8 5 9 -17 -25 -43 -45
-36 -8 3 -12 2 -8 -1 10 -10 -12 -65 -26 -65 -7 0 -13 7 -13 15 0 8 7 15 16
15 14 0 14 2 1 10 -11 7 -11 10 -2 10 7 0 10 5 7 10 -3 6 2 13 12 17 10 3 26
15 37 25 10 11 24 17 32 14 8 -3 14 0 14 6 0 6 3 9 6 5 3 -3 3 -15 -1 -27z
m45 9 c0 -9 -8 -19 -18 -21 -15 -4 -18 -1 -15 17 5 26 33 30 33 4z m53 -3 c-3
-20 -3 -20 6 2 6 12 15 22 21 22 6 0 8 -4 5 -10 -3 -6 1 -7 9 -4 22 9 21 -22
-1 -35 -11 -6 -24 -6 -36 1 -10 5 -25 7 -33 4 -10 -4 -14 2 -14 18 0 18 6 24
24 24 19 0 23 -5 19 -22z m107 -66 c-21 -13 -24 -13 -48 8 -19 17 -20 20 -5
34 14 15 18 14 42 -8 22 -21 24 -26 11 -34z m-71 -6 c25 -32 37 -89 25 -123
-14 -38 -69 -71 -121 -71 -57 0 -81 14 -99 55 -22 55 -18 112 11 140 21 22 33
25 94 25 63 0 71 -2 90 -26z m89 -22 c2 -7 -5 -12 -15 -13 -16 0 -16 -1 2 -10
18 -8 18 -8 -5 -6 -14 1 -26 9 -28 19 -3 13 1 16 14 11 13 -5 15 -3 9 7 -5 8
-3 11 5 8 8 -2 16 -10 18 -16z m-318 -32 c0 -5 -7 -10 -15 -10 -8 0 -15 5 -15
10 0 6 7 10 15 10 8 0 15 -4 15 -10z m313 -17 c-7 -2 -19 -2 -25 0 -7 3 -2 5
12 5 14 0 19 -2 13 -5z m-316 -9 c-3 -3 -12 -4 -19 -1 -8 3 -5 6 6 6 11 1 17
-2 13 -5z m333 -14 c0 -12 -8 -12 -35 0 -18 8 -17 9 8 9 15 1 27 -3 27 -9z
m-330 -15 c0 -8 -8 -15 -17 -14 -13 0 -14 2 -4 6 11 5 11 7 0 14 -11 7 -10 9
4 9 9 0 17 -7 17 -15z m320 -5 c9 -6 11 -10 3 -10 -7 0 -10 -7 -6 -16 3 -9 0
-20 -8 -25 -8 -4 -15 -13 -15 -19 -1 -5 -2 -14 -3 -18 -1 -8 -52 -36 -59 -33
-1 1 -15 -5 -32 -14 -38 -20 -50 -19 -51 3 0 14 -2 14 -9 -3 -5 -11 -9 -15 -9
-9 -1 6 -13 10 -27 8 -36 -4 -56 6 -49 24 4 12 2 12 -8 3 -11 -8 -18 -6 -32 9
-10 11 -16 20 -12 20 3 0 13 3 23 7 13 5 16 3 12 -9 -5 -11 0 -14 18 -12 21 2
24 -1 18 -19 -6 -22 -6 -22 10 -2 12 15 15 16 16 5 0 -13 1 -13 10 0 8 12 10
12 10 1 0 -11 3 -11 16 0 13 10 17 10 24 -1 14 -23 38 -21 32 4 -5 19 -4 20
11 7 16 -12 17 -12 11 5 -7 18 -6 18 17 -1 18 -15 20 -16 10 -2 -12 15 -10 20
13 43 14 15 26 35 26 45 0 21 16 24 40 9z m-312 -32 c-6 -18 -28 -21 -28 -4 0
9 7 16 16 16 9 0 14 -5 12 -12z m17 -28 c-3 -5 -13 -10 -21 -10 -8 0 -12 5 -9
10 3 6 13 10 21 10 8 0 12 -4 9 -10z"/>
<path d="M5676 5011 c-9 -14 18 -31 33 -22 11 7 9 11 -7 20 -12 6 -23 7 -26 2z"/>
<path d="M5696 4821 c-4 -5 -2 -12 3 -15 5 -4 12 -2 15 3 4 5 2 12 -3 15 -5 4
-12 2 -15 -3z"/>
<path d="M5687 4789 c7 -7 15 -10 18 -7 3 3 -2 9 -12 12 -14 6 -15 5 -6 -5z"/>
<path d="M5660 4786 c0 -2 8 -10 18 -17 15 -13 16 -12 3 4 -13 16 -21 21 -21
13z"/>
<path d="M5305 4539 c-5 -8 -5 -11 0 -7 4 4 13 0 20 -9 10 -13 13 -14 20 -2 5
8 5 11 0 7 -4 -4 -13 0 -20 9 -10 13 -13 14 -20 2z"/>
<path d="M3791 5444 c-47 -34 -66 -135 -36 -194 9 -17 28 -33 49 -40 55 -18
87 5 132 96 38 76 61 96 96 86 28 -7 41 -40 35 -89 -6 -54 -39 -93 -79 -93
-23 0 -28 -4 -28 -25 0 -21 5 -25 31 -25 23 0 42 10 69 38 82 82 58 242 -36
243 -83 0 -136 -7 -144 -21 -14 -22 -12 -47 6 -65 14 -13 14 -20 4 -46 -7 -17
-24 -37 -37 -46 -21 -14 -25 -14 -48 1 -47 31 -28 124 29 147 30 13 46 26 46
42 0 14 -65 7 -89 -9z m149 -31 c0 -5 -9 -19 -20 -33 -17 -22 -19 -23 -25 -7
-10 25 1 47 25 47 11 0 20 -3 20 -7z"/>
<path d="M7135 5443 c-59 -21 -73 -58 -35 -90 37 -32 19 -136 -25 -147 -34 -9
-51 1 -69 39 -26 54 -21 102 14 135 58 54 27 84 -32 31 -31 -27 -33 -34 -33
-93 0 -74 17 -114 63 -144 31 -21 48 -23 93 -9 28 9 49 57 49 115 0 28 6 68
12 90 12 36 16 40 45 40 26 0 36 -6 48 -30 23 -44 19 -87 -10 -114 -30 -28
-33 -56 -6 -56 34 0 71 56 71 106 0 50 -30 118 -59 134 -26 13 -77 11 -126 -7z
m-11 -50 c-9 -36 -12 -39 -20 -19 -7 20 1 46 16 46 6 0 8 -11 4 -27z"/>
<path d="M3915 4606 c-89 -27 -110 -37 -110 -52 0 -20 7 -21 66 -9 36 7 37 6
43 -29 10 -54 45 -89 87 -88 39 1 79 40 78 75 -1 33 -33 130 -44 133 -6 1 -59
-12 -120 -30z m125 -91 c0 -26 -18 -45 -42 -45 -20 0 -43 32 -53 71 -6 24 -3
27 32 36 35 9 39 8 50 -16 7 -14 12 -35 13 -46z"/>
<path d="M7008 4606 c-4 -17 7 -36 38 -72 l42 -49 -61 -15 c-56 -15 -90 -40
-74 -56 3 -4 43 3 88 14 75 19 84 19 126 5 38 -13 47 -13 54 -2 14 22 6 32
-43 48 -36 12 -59 31 -103 84 -32 37 -59 67 -60 67 -1 0 -5 -11 -7 -24z"/>
<path d="M4063 4232 c-115 -71 -122 -78 -103 -97 13 -12 21 -11 62 15 l47 29
31 -50 30 -50 -31 -17 c-61 -33 -71 -45 -57 -64 12 -15 22 -11 117 45 57 34
106 67 108 72 1 6 -1 16 -6 24 -7 12 -17 9 -55 -13 l-45 -26 -26 43 c-30 52
-31 64 -7 71 9 4 28 15 42 25 20 16 22 21 11 35 -7 9 -16 16 -20 15 -3 0 -47
-26 -98 -57z"/>
<path d="M6862 4240 c-10 -17 -7 -22 33 -46 27 -16 42 -30 38 -37 -4 -7 -17
-29 -30 -50 l-24 -38 -43 25 c-32 19 -46 22 -54 14 -7 -7 -12 -15 -12 -19 0
-4 48 -38 107 -74 100 -63 107 -66 120 -49 12 16 8 21 -36 49 l-50 30 30 48
c16 26 32 47 37 47 4 0 24 -11 44 -25 20 -14 42 -25 47 -25 10 0 12 4 15 30 1
5 -39 34 -87 65 -126 78 -121 77 -135 55z"/>
<path d="M4335 3910 c-58 -30 -80 -65 -80 -127 0 -43 5 -57 25 -78 54 -53 137
-47 192 14 93 104 -15 254 -137 191z m126 -72 c33 -80 -93 -168 -151 -106 -27
30 -25 70 6 107 48 58 121 57 145 -1z"/>
<path d="M6629 3912 c-9 -4 -40 -28 -68 -54 l-53 -48 88 -95 c68 -73 90 -92
101 -84 20 17 16 33 -17 64 l-30 29 40 41 c56 57 54 111 -7 143 -24 13 -31 14
-54 4z m55 -64 c8 -13 6 -23 -10 -44 -35 -48 -50 -52 -81 -22 l-27 28 29 30
c33 34 70 37 89 8z"/>
<path d="M4670 3695 c-7 -9 -11 -17 -9 -18 2 -2 19 -12 36 -23 l33 -20 -51
-87 c-48 -83 -56 -117 -26 -117 7 0 33 35 57 78 60 108 57 104 92 86 30 -15
58 -13 58 5 0 7 -63 47 -171 107 -4 2 -12 -3 -19 -11z"/>
<path d="M6267 3648 c-16 -12 -16 -21 2 -142 11 -71 23 -131 26 -134 12 -12
30 21 30 56 0 32 5 39 41 59 l42 23 30 -24 c25 -22 32 -23 47 -12 16 12 8 21
-85 99 -57 48 -107 87 -110 87 -3 0 -14 -6 -23 -12z m90 -92 l23 -19 -31 -19
c-17 -11 -33 -18 -34 -16 -2 2 -8 27 -13 56 l-9 53 21 -18 c11 -10 31 -26 43
-37z"/>
<path d="M5032 3507 c-28 -16 -51 -48 -63 -90 -29 -102 69 -193 165 -153 88
37 108 169 35 230 -34 29 -97 35 -137 13z m121 -49 c21 -25 22 -79 2 -118 -27
-53 -74 -64 -119 -29 -46 36 -31 134 25 165 30 17 69 10 92 -18z"/>
<path d="M5930 3508 c-19 -5 -51 -13 -71 -19 l-36 -9 31 -119 c17 -65 34 -119
39 -120 27 -5 39 0 33 15 -3 9 -9 33 -12 53 -6 37 -5 38 34 48 49 13 67 3 82
-42 9 -27 17 -35 36 -35 13 0 24 2 24 4 0 18 -42 96 -56 104 -11 6 -13 11 -5
16 12 8 15 65 3 82 -8 13 -47 34 -59 33 -4 0 -24 -5 -43 -11z m60 -42 c6 -8
10 -25 8 -38 -2 -17 -14 -25 -51 -36 -27 -8 -50 -12 -52 -10 -2 2 -6 19 -10
39 -7 36 -6 37 32 47 53 14 59 14 73 -2z"/>
<path d="M5455 3438 c-31 -24 -55 -74 -55 -114 0 -37 28 -90 58 -110 35 -23
95 -23 121 0 19 17 21 17 21 3 0 -10 8 -17 18 -17 15 0 18 10 20 64 2 70 -3
76 -75 76 -26 0 -33 -4 -33 -20 0 -16 7 -20 35 -20 41 0 44 -12 10 -45 -51
-52 -125 -13 -125 65 0 42 14 79 34 92 30 21 106 1 106 -27 0 -9 10 -15 25
-15 29 0 29 0 13 35 -25 55 -122 74 -173 33z"/>
<path d="M2912 2124 c-43 -30 -19 -72 51 -88 20 -5 27 -12 27 -30 0 -40 -48
-49 -80 -14 -15 17 -20 18 -20 6 0 -23 24 -39 59 -40 38 -1 61 17 61 48 0 26
-11 35 -60 49 -62 19 -48 77 14 61 14 -3 26 -14 28 -24 2 -12 6 -13 11 -5 10
15 -27 53 -51 53 -10 0 -28 -7 -40 -16z"/>
<path d="M3390 2058 c-12 -46 -25 -92 -28 -102 -3 -12 -1 -17 5 -13 6 4 13 19
16 34 4 16 15 58 26 96 11 37 16 67 12 67 -4 0 -18 -37 -31 -82z"/>
<path d="M3591 2058 c-12 -46 -25 -91 -28 -102 -3 -11 -1 -16 5 -12 5 3 12 18
15 33 4 16 15 58 26 96 11 37 16 67 12 67 -4 0 -18 -37 -30 -82z"/>
<path d="M6432 2124 c-43 -30 -19 -72 51 -88 20 -5 27 -12 27 -30 0 -40 -48
-49 -80 -14 -15 17 -20 18 -20 6 0 -23 24 -39 59 -40 38 -1 61 17 61 48 0 26
-11 35 -60 49 -62 19 -48 77 14 61 14 -3 26 -14 28 -24 2 -12 6 -13 11 -5 10
15 -27 53 -51 53 -10 0 -28 -7 -40 -16z"/>
<path d="M7015 2115 c-14 -13 -25 -30 -26 -37 0 -7 -2 -20 -4 -29 -5 -27 23
-79 48 -88 60 -23 112 16 112 86 0 37 -5 49 -28 69 -36 31 -71 31 -102 -1z
m99 -17 c36 -51 7 -128 -48 -128 -63 0 -86 106 -32 142 23 16 65 8 80 -14z"/>
<path d="M8362 2130 c-38 -16 -54 -84 -31 -134 14 -31 61 -49 94 -36 26 10 51
47 39 58 -4 4 -9 1 -11 -6 -15 -42 -68 -55 -96 -24 -23 26 -22 94 1 115 26 24
68 21 86 -5 9 -12 19 -18 23 -14 11 10 -44 56 -65 55 -9 0 -27 -4 -40 -9z"/>
<path d="M8674 2129 c-63 -32 -55 -144 12 -169 55 -21 104 24 104 94 0 61 -63
102 -116 75z m80 -28 c23 -25 24 -86 1 -111 -58 -64 -140 36 -89 108 19 27 64
29 88 3z"/>
<path d="M1770 2045 c0 -87 16 -119 22 -43 l3 42 45 1 45 0 3 -42 c5 -75 19
-46 20 42 0 47 -4 85 -9 85 -5 0 -9 -16 -9 -35 l0 -35 -50 0 -50 0 0 35 c0 19
-4 35 -10 35 -6 0 -10 -35 -10 -85z"/>
<path d="M2083 2123 c15 -2 27 -10 28 -16 0 -7 0 -42 1 -79 0 -38 4 -68 9 -68
5 0 9 36 9 79 l0 80 33 4 c17 2 1 4 -38 4 -38 0 -58 -2 -42 -4z"/>
<path d="M2355 2121 l30 -6 -3 -78 c-3 -51 0 -77 7 -77 7 0 11 29 11 79 l0 80
33 4 c17 2 1 4 -38 4 -44 0 -59 -2 -40 -6z"/>
<path d="M2610 2045 c0 -50 4 -85 10 -85 6 0 10 15 10 34 0 31 3 34 38 40 51
8 65 19 65 51 0 35 -17 45 -75 45 l-48 0 0 -85z m96 61 c28 -22 7 -50 -40 -54
-35 -3 -36 -2 -36 32 0 33 3 36 28 36 16 0 37 -6 48 -14z"/>
<path d="M3770 2119 c1 -32 37 -153 47 -156 6 -2 18 27 28 67 10 39 19 69 22
67 2 -3 12 -33 21 -67 9 -35 22 -65 27 -67 6 -2 19 29 29 69 10 40 21 79 23
86 3 6 1 12 -5 12 -5 0 -18 -31 -27 -70 -9 -38 -18 -70 -20 -70 -2 0 -11 32
-20 70 -23 96 -34 91 -66 -30 l-12 -45 -18 68 c-17 67 -29 95 -29 66z"/>
<path d="M4133 2045 c12 -47 26 -85 32 -85 7 0 18 26 25 58 19 90 25 92 45 13
9 -40 22 -70 28 -68 13 4 58 167 46 167 -8 0 -22 -43 -35 -109 -8 -41 -17 -28
-34 52 -8 32 -19 57 -26 57 -6 0 -19 -30 -29 -70 -9 -38 -18 -70 -20 -70 -2 0
-11 32 -20 70 -9 39 -21 70 -25 70 -4 0 2 -38 13 -85z"/>
<path d="M4464 2113 c3 -10 13 -49 22 -86 9 -38 21 -66 27 -64 6 2 18 31 27
65 8 33 18 63 21 67 3 3 12 -21 19 -53 13 -62 25 -90 35 -81 6 7 45 143 45
159 0 31 -19 -7 -30 -60 -7 -33 -16 -60 -20 -60 -4 0 -13 27 -20 60 -20 96
-38 92 -60 -12 -15 -67 -21 -63 -40 25 -7 31 -17 57 -22 57 -5 0 -7 -8 -4 -17z"/>
<path d="M5022 2045 l-3 -85 50 0 c69 0 96 24 96 83 0 64 -23 87 -89 87 l-51
0 -3 -85z m108 55 c24 -24 27 -82 4 -104 -9 -9 -32 -16 -55 -16 l-39 0 0 70 0
70 35 0 c22 0 43 -8 55 -20z"/>
<path d="M5357 2063 c-40 -103 -40 -103 -29 -103 5 0 13 11 16 25 5 21 12 25
46 25 33 0 42 -4 52 -25 22 -48 28 -25 7 28 -12 28 -26 67 -32 85 -6 17 -16
32 -22 32 -7 0 -24 -30 -38 -67z m63 -24 c0 -5 -13 -9 -30 -9 -19 0 -28 4 -25
13 2 6 9 26 15 42 l12 30 14 -34 c8 -18 14 -37 14 -42z"/>
<path d="M5639 2048 c15 -45 32 -83 38 -85 9 -3 63 135 63 162 0 21 -19 -13
-35 -65 -10 -30 -21 -58 -24 -63 -4 -4 -17 24 -30 63 -12 38 -26 70 -31 70 -5
0 4 -37 19 -82z"/>
<path d="M5910 2045 c0 -50 4 -85 10 -85 6 0 10 35 10 85 0 50 -4 85 -10 85
-6 0 -10 -35 -10 -85z"/>
<path d="M6110 2045 l0 -85 45 0 c36 0 52 6 72 26 22 22 25 32 20 72 -6 56
-25 72 -89 72 l-48 0 0 -85z m98 59 c16 -11 22 -25 22 -50 0 -56 -15 -74 -60
-74 l-40 0 0 70 c0 70 0 70 28 70 15 0 38 -7 50 -16z"/>
<path d="M6700 2045 c0 -50 4 -85 10 -85 9 0 16 69 10 95 -1 6 -2 25 -2 43 1
17 -3 32 -8 32 -6 0 -10 -37 -10 -85z"/>
<path d="M6765 2090 c-21 -22 -34 -40 -29 -40 6 0 25 -20 43 -45 18 -25 37
-45 42 -45 6 0 -6 22 -26 50 -38 51 -38 58 -2 98 34 37 13 24 -28 -18z"/>
<path d="M7318 2123 l32 -4 0 -80 c0 -46 4 -79 10 -79 6 0 10 33 10 79 0 79 0
80 28 84 15 2 -4 4 -43 4 -38 0 -55 -2 -37 -4z"/>
<path d="M7588 2123 l32 -4 0 -80 c0 -50 4 -79 11 -79 7 0 10 25 9 68 -3 92
-3 90 28 95 15 2 -4 4 -43 4 -38 0 -55 -2 -37 -4z"/>
<path d="M7850 2045 l0 -85 61 0 c37 0 58 4 54 10 -3 6 -26 10 -51 10 -42 0
-44 1 -44 30 0 28 2 30 40 30 22 0 40 5 40 10 0 6 -18 10 -40 10 -38 0 -40 2
-40 29 0 28 2 30 48 34 46 3 46 3 -10 5 l-58 2 0 -85z"/>
<path d="M8960 2045 c0 -47 4 -85 9 -85 5 0 8 22 7 48 -4 82 7 88 33 17 12
-36 26 -65 31 -65 4 0 18 28 30 63 13 34 26 65 29 69 4 4 6 -24 5 -62 -1 -39
2 -70 7 -70 5 0 9 38 9 85 0 107 -16 112 -50 15 -13 -38 -27 -70 -30 -70 -3 0
-17 32 -30 70 -34 97 -50 92 -50 -15z"/>
<path d="M3180 2070 c0 -5 5 -10 10 -10 6 0 10 5 10 10 0 6 -4 10 -10 10 -5 0
-10 -4 -10 -10z"/>
<path d="M3180 1970 c0 -5 5 -10 10 -10 6 0 10 5 10 10 0 6 -4 10 -10 10 -5 0
-10 -4 -10 -10z"/>
<path d="M4830 1970 c0 -5 5 -10 11 -10 5 0 7 5 4 10 -3 6 -8 10 -11 10 -2 0
-4 -4 -4 -10z"/>
<path d="M8130 1970 c0 -5 5 -10 10 -10 6 0 10 5 10 10 0 6 -4 10 -10 10 -5 0
-10 -4 -10 -10z"/>
</g>
</svg>
